<?xml version="1.0" encoding="UTF-8" standalone="no"?>
<!-- Created with Inkscape (http://www.inkscape.org/) -->

<svg
   xmlns:dc="http://purl.org/dc/elements/1.1/"
   xmlns:cc="http://creativecommons.org/ns#"
   xmlns:rdf="http://www.w3.org/1999/02/22-rdf-syntax-ns#"
   xmlns:svg="http://www.w3.org/2000/svg"
   xmlns="http://www.w3.org/2000/svg"
   xmlns:sodipodi="http://sodipodi.sourceforge.net/DTD/sodipodi-0.dtd"
   xmlns:inkscape="http://www.inkscape.org/namespaces/inkscape"
   width="167.705"
   height="158.22958"
   id="svg2874"
   version="1.1"
   inkscape:version="0.48.2 r9819"
   sodipodi:docname="configuration.svg"
   inkscape:export-filename="/home/tom/wokspace/EventServer/web/panel/img/configuration.png"
   inkscape:export-xdpi="90"
   inkscape:export-ydpi="90">
  <defs
     id="defs2876">
    <inkscape:perspective
       sodipodi:type="inkscape:persp3d"
       inkscape:vp_x="0 : 526.18109 : 1"
       inkscape:vp_y="0 : 1000 : 0"
       inkscape:vp_z="744.09448 : 526.18109 : 1"
       inkscape:persp3d-origin="372.04724 : 350.78739 : 1"
       id="perspective2882" />
    <inkscape:perspective
       id="perspective2892"
       inkscape:persp3d-origin="0.5 : 0.33333333 : 1"
       inkscape:vp_z="1 : 0.5 : 1"
       inkscape:vp_y="0 : 1000 : 0"
       inkscape:vp_x="0 : 0.5 : 1"
       sodipodi:type="inkscape:persp3d" />
  </defs>
  <sodipodi:namedview
     id="base"
     pagecolor="#ffffff"
     bordercolor="#666666"
     borderopacity="1.0"
     inkscape:pageopacity="0.0"
     inkscape:pageshadow="2"
     inkscape:zoom="3.959798"
     inkscape:cx="122.22651"
     inkscape:cy="68.923482"
     inkscape:document-units="px"
     inkscape:current-layer="layer1"
     showgrid="false"
     inkscape:window-width="1680"
     inkscape:window-height="975"
     inkscape:window-x="0"
     inkscape:window-y="30"
     inkscape:window-maximized="1"
     objecttolerance="20"
     fit-margin-top="0"
     fit-margin-left="0"
     fit-margin-right="0"
     fit-margin-bottom="0" />
  <metadata
     id="metadata2879">
    <rdf:RDF>
      <cc:Work
         rdf:about="">
        <dc:format>image/svg+xml</dc:format>
        <dc:type
           rdf:resource="http://purl.org/dc/dcmitype/StillImage" />
        <dc:title />
      </cc:Work>
    </rdf:RDF>
  </metadata>
  <g
     inkscape:label="Layer 1"
     inkscape:groupmode="layer"
     id="layer1"
     transform="translate(-262.02525,-555.29609)">
    <path
       transform="translate(252.91734,274.37599)"
       sodipodi:type="star"
       style="fill:#000080;fill-opacity:0.44594595;stroke:#afafad;stroke-width:0.02005715000000000;stroke-linecap:square;stroke-linejoin:miter;stroke-miterlimit:4;stroke-opacity:1;stroke-dasharray:none"
       id="path2820-7"
       sodipodi:sides="19"
       sodipodi:cx="72.225906"
       sodipodi:cy="348.28586"
       sodipodi:r1="50.886204"
       sodipodi:r2="57.588737"
       sodipodi:arg1="1.157607"
       sodipodi:arg2="1.322954"
       inkscape:flatsided="false"
       inkscape:rounded="0.89"
       inkscape:randomized="0.001"
       d="m 92.659614,394.86492 c -9.110838,3.98396 3.283746,6.78158 -6.352232,9.22785 -9.635977,2.44628 -0.0063,-5.93548 -9.917577,-5.11662 -9.911288,0.81885 0.944787,7.55733 -8.968859,6.72197 -9.913645,-0.83536 1.944944,-5.62001 -7.696186,-8.05083 -9.641131,-2.43082 -1.500154,7.42818 -10.6007,3.42477 -9.100544,-4.00341 3.566865,-4.81677 -4.761314,-10.2464 -8.32818,-5.42963 -3.820877,6.56703 -11.135074,-0.16498 -7.314195,-6.73201 4.926115,-3.24837 -1.18881,-11.09392 -6.114926,-7.84555 -5.719603,4.8331 -10.438013,-3.91954 -4.718409,-8.75263 5.755206,-1.47796 2.511967,-10.88288 -3.243238,-9.40492 -7.032243,2.85537 -8.669522,-6.95402 -1.637278,-9.80939 5.940809,0.44648 5.936915,-9.50314 -0.0039,-9.94962 -7.552044,0.3283 -5.908969,-9.4785 1.643074,-9.80681 5.4441,2.30679 8.684506,-7.09288 3.240408,-9.39968 -7.321803,-2.14681 -2.592827,-10.89124 4.728976,-8.74442 4.449991,3.99977 10.555535,-3.84659 6.105546,-7.84635 -6.206091,-4.38401 1.114153,-11.11923 7.320243,-6.73521 2.8143,5.26654 11.135171,-0.18186 8.320872,-5.44841 -4.323528,-6.21648 4.784895,-10.20944 9.108422,-3.99295 0.948344,5.96667 10.592079,3.52259 9.643738,-2.44408 -2.190022,-7.32294 7.717671,-8.14552 9.907692,-0.82257 -0.961165,5.83785 8.947507,6.65242 9.908673,0.81457 0.297299,-7.46536 9.938753,-5.03354 9.641453,2.43182 -2.778207,5.25745 6.324427,9.26037 9.10264,4.00292 2.688964,-7.06636 11.0161,-1.62594 8.32714,5.44043 -4.335636,3.95076 2.99232,10.67968 7.32795,6.72891 4.89467,-5.78965 10.99515,2.06834 6.10047,7.85799 -5.41767,2.42191 -0.67871,11.16577 4.73896,8.74386 6.43141,-3.86719 9.66793,5.53436 3.23651,9.40154 -5.91586,0.5842 -4.26541,10.39184 1.65045,9.80764 7.39839,-1.57977 7.39972,8.36114 0.001,9.9409 -5.77138,-1.41259 -7.42124,8.39475 -1.64986,9.80734 7.59691,0.9228 4.35266,10.32249 -3.24424,9.3997 -5.05794,-3.24756 -9.79191,5.49346 -4.73397,8.74102 6.86277,3.29397 0.75339,11.13557 -6.10939,7.8416 -3.75365,-4.68883 -11.06681,2.05584 -7.313159,6.74468 5.36685,5.31131 -2.95704,10.75593 -8.323893,5.44463 -1.89881,-5.59602 -11.009646,-1.61207 z"
       inkscape:export-filename="/home/tom/Desktop/dag/configuration.png"
       inkscape:export-xdpi="90"
       inkscape:export-ydpi="90" />
    <path
       sodipodi:type="arc"
       style="fill:#000080;fill-opacity:1;stroke:#afafad;stroke-width:0.02005715;stroke-linecap:square;stroke-linejoin:miter;stroke-miterlimit:4;stroke-opacity:0.67317074;stroke-dasharray:none"
       id="path3596-8"
       sodipodi:cx="71.215752"
       sodipodi:cy="351.06378"
       sodipodi:rx="11.111678"
       sodipodi:ry="10.354064"
       d="m 82.32743,351.06378 c 0,5.71839 -4.974868,10.35407 -11.111678,10.35407 -6.136811,0 -11.111678,-4.63568 -11.111678,-10.35407 0,-5.71839 4.974867,-10.35406 11.111678,-10.35406 6.13681,0 11.111678,4.63567 11.111678,10.35406 z"
       transform="matrix(2.9887176,0,0,3.2063015,112.29948,-501.43921)"
       inkscape:export-filename="/home/tom/Desktop/dag/configuration.png"
       inkscape:export-xdpi="90"
       inkscape:export-ydpi="90" />
    <path
       sodipodi:type="star"
       style="fill:#000080;fill-opacity:0.44594595;stroke:#afafad;stroke-width:0.02005715000000000;stroke-linecap:square;stroke-linejoin:miter;stroke-miterlimit:4;stroke-opacity:0.67317073999999999;stroke-dasharray:none"
       id="path3620-3"
       sodipodi:sides="13"
       sodipodi:cx="141.92644"
       sodipodi:cy="398.79349"
       sodipodi:r1="44.026691"
       sodipodi:r2="36.665474"
       sodipodi:arg1="0.66214749"
       sodipodi:arg2="0.85296853"
       inkscape:flatsided="false"
       inkscape:rounded="0.89"
       inkscape:randomized="0.001"
       d="m 176.65046,425.85328 c -5.41089,7.74577 -3.20286,-5.29962 -10.6344,0.54139 -9.6788,7.60731 5.05532,6.85586 -5.88867,12.50564 -8.40297,4.33798 -0.3795,-6.19956 -9.66853,-4.46839 -12.098,2.25467 1.24039,8.38308 -11.07548,8.30071 -9.45632,-0.0632 2.50428,-5.6497 -6.5246,-8.44647 -11.75918,-3.6425 -2.73238,8.04695 -13.58464,2.24013 -8.33253,-4.45857 4.87352,-3.79985 -1.81954,-10.47237 -8.71702,-8.69025 -6.20907,5.78776 -13.14158,-4.37898 -5.322889,-7.80617 6.08638,-1.11381 3.2521,-10.129 -3.69136,-11.74133 -8.178995,2.21237 -9.57457,-10.01503 -1.071545,-9.38838 5.85973,1.84273 7.552,-7.45878 2.20401,-12.11425 -8.263233,-1.78226 -3.81772,-13.26467 3.41333,-8.81637 4.34599,4.38999 10.15328,-3.06937 7.56339,-9.71504 -6.46509,-5.41958 2.80776,-13.50947 7.11985,-6.21155 1.81203,5.89942 10.42269,2.00231 11.2145,-5.07558 -3.17343,-7.85864 8.8046,-10.70244 9.19691,-2.1835 -1.20011,6.06065 8.23283,6.62278 12.28543,0.73212 0.82231,-8.41187 12.75701,-5.38936 9.16366,2.32073 -3.76781,4.78466 4.33457,9.645 10.5525,6.33009 4.56252,-7.0636 13.7222,1.16913 7.03294,6.32122 -5.61641,2.56301 -0.69954,10.63859 6.40372,10.51761 7.35617,-4.15164 11.64515,7.38372 3.29315,8.85704 -6.16145,-0.41028 -5.55754,9.0248 0.78652,12.2882 8.52362,-0.20082 6.94512,12.00323 -1.21199,9.37046 -5.35168,-3.17681 -9.19509,5.45373 -5.00565,11.24039 7.59971,3.6851 0.55259,13.77317 z"
       transform="matrix(0.80054851,0,0,0.83062515,281.1622,345.71764)"
       inkscape:export-filename="/home/tom/Desktop/dag/configuration.png"
       inkscape:export-xdpi="90"
       inkscape:export-ydpi="90" />
    <path
       sodipodi:type="arc"
       style="fill:#000080;fill-opacity:1;stroke:#afafad;stroke-width:0.02005715;stroke-linecap:square;stroke-linejoin:miter;stroke-miterlimit:4;stroke-opacity:0.67317074;stroke-dasharray:none"
       id="path3596-6-1"
       sodipodi:cx="71.215752"
       sodipodi:cy="351.06378"
       sodipodi:rx="11.111678"
       sodipodi:ry="10.354064"
       d="m 82.32743,351.06378 c 0,5.71839 -4.974868,10.35407 -11.111678,10.35407 -6.136811,0 -11.111678,-4.63568 -11.111678,-10.35407 0,-5.71839 4.974867,-10.35406 11.111678,-10.35406 6.13681,0 11.111678,4.63567 11.111678,10.35406 z"
       transform="matrix(1.2421507,0,0,1.3071786,305.12038,218.30704)"
       inkscape:export-filename="/home/tom/Desktop/dag/configuration.png"
       inkscape:export-xdpi="90"
       inkscape:export-ydpi="90" />
    <path
       transform="translate(246.87612,264.56429)"
       sodipodi:type="star"
       style="fill:#008000;fill-opacity:1;stroke:#afafad;stroke-width:0.02005715;stroke-linecap:square;stroke-linejoin:miter;stroke-miterlimit:4;stroke-opacity:1;stroke-dasharray:none"
       id="path2820"
       sodipodi:sides="19"
       sodipodi:cx="72.225906"
       sodipodi:cy="348.28586"
       sodipodi:r1="50.886204"
       sodipodi:r2="57.588737"
       sodipodi:arg1="1.157607"
       sodipodi:arg2="1.322954"
       inkscape:flatsided="false"
       inkscape:rounded="0.89"
       inkscape:randomized="0.001"
       d="m 92.659614,394.86492 c -9.110838,3.98396 3.283746,6.78158 -6.352232,9.22785 -9.635977,2.44628 -0.0063,-5.93548 -9.917577,-5.11662 -9.911288,0.81885 0.944787,7.55733 -8.968859,6.72197 -9.913645,-0.83536 1.944944,-5.62001 -7.696186,-8.05083 -9.641131,-2.43082 -1.500154,7.42818 -10.6007,3.42477 -9.100544,-4.00341 3.566865,-4.81677 -4.761314,-10.2464 -8.32818,-5.42963 -3.820877,6.56703 -11.135074,-0.16498 -7.314195,-6.73201 4.926115,-3.24837 -1.18881,-11.09392 -6.114926,-7.84555 -5.719603,4.8331 -10.438013,-3.91954 -4.718409,-8.75263 5.755206,-1.47796 2.511967,-10.88288 -3.243238,-9.40492 -7.032243,2.85537 -8.669522,-6.95402 -1.637278,-9.80939 5.940809,0.44648 5.936915,-9.50314 -0.0039,-9.94962 -7.552044,0.3283 -5.908969,-9.4785 1.643074,-9.80681 5.4441,2.30679 8.684506,-7.09288 3.240408,-9.39968 -7.321803,-2.14681 -2.592827,-10.89124 4.728976,-8.74442 4.449991,3.99977 10.555535,-3.84659 6.105546,-7.84635 -6.206091,-4.38401 1.114153,-11.11923 7.320243,-6.73521 2.8143,5.26654 11.135171,-0.18186 8.320872,-5.44841 -4.323528,-6.21648 4.784895,-10.20944 9.108422,-3.99295 0.948344,5.96667 10.592079,3.52259 9.643738,-2.44408 -2.190022,-7.32294 7.717671,-8.14552 9.907692,-0.82257 -0.961165,5.83785 8.947507,6.65242 9.908673,0.81457 0.297299,-7.46536 9.938753,-5.03354 9.641453,2.43182 -2.778207,5.25745 6.324427,9.26037 9.10264,4.00292 2.688964,-7.06636 11.0161,-1.62594 8.32714,5.44043 -4.335636,3.95076 2.99232,10.67968 7.32795,6.72891 4.89467,-5.78965 10.99515,2.06834 6.10047,7.85799 -5.41767,2.42191 -0.67871,11.16577 4.73896,8.74386 6.43141,-3.86719 9.66793,5.53436 3.23651,9.40154 -5.91586,0.5842 -4.26541,10.39184 1.65045,9.80764 7.39839,-1.57977 7.39972,8.36114 0.001,9.9409 -5.77138,-1.41259 -7.42124,8.39475 -1.64986,9.80734 7.59691,0.9228 4.35266,10.32249 -3.24424,9.3997 -5.05794,-3.24756 -9.79191,5.49346 -4.73397,8.74102 6.86277,3.29397 0.75339,11.13557 -6.10939,7.8416 -3.75365,-4.68883 -11.06681,2.05584 -7.313159,6.74468 5.36685,5.31131 -2.95704,10.75593 -8.323893,5.44463 -1.89881,-5.59602 -11.009646,-1.61207 z"
       inkscape:export-filename="/home/tom/Desktop/dag/configuration.png"
       inkscape:export-xdpi="90"
       inkscape:export-ydpi="90" />
    <path
       sodipodi:type="arc"
       style="fill:#ffffff;fill-opacity:1;stroke:#afafad;stroke-width:0.02005715;stroke-linecap:square;stroke-linejoin:miter;stroke-miterlimit:4;stroke-opacity:0.67317074;stroke-dasharray:none"
       id="path3596"
       sodipodi:cx="71.215752"
       sodipodi:cy="351.06378"
       sodipodi:rx="11.111678"
       sodipodi:ry="10.354064"
       d="m 82.32743,351.06378 c 0,5.71839 -4.974868,10.35407 -11.111678,10.35407 -6.136811,0 -11.111678,-4.63568 -11.111678,-10.35407 0,-5.71839 4.974867,-10.35406 11.111678,-10.35406 6.13681,0 11.111678,4.63567 11.111678,10.35406 z"
       transform="matrix(2.9887176,0,0,3.2063015,106.25826,-511.25091)"
       inkscape:export-filename="/home/tom/Desktop/dag/configuration.png"
       inkscape:export-xdpi="90"
       inkscape:export-ydpi="90" />
    <path
       sodipodi:type="star"
       style="fill:#aa0000;fill-opacity:1;stroke:#afafad;stroke-width:0.02005715;stroke-linecap:square;stroke-linejoin:miter;stroke-miterlimit:4;stroke-opacity:0.67317074;stroke-dasharray:none"
       id="path3620"
       sodipodi:sides="13"
       sodipodi:cx="141.92644"
       sodipodi:cy="398.79349"
       sodipodi:r1="44.026691"
       sodipodi:r2="36.665474"
       sodipodi:arg1="0.66214749"
       sodipodi:arg2="0.85296853"
       inkscape:flatsided="false"
       inkscape:rounded="0.89"
       inkscape:randomized="0.001"
       d="m 176.65046,425.85328 c -5.41089,7.74577 -3.20286,-5.29962 -10.6344,0.54139 -9.6788,7.60731 5.05532,6.85586 -5.88867,12.50564 -8.40297,4.33798 -0.3795,-6.19956 -9.66853,-4.46839 -12.098,2.25467 1.24039,8.38308 -11.07548,8.30071 -9.45632,-0.0632 2.50428,-5.6497 -6.5246,-8.44647 -11.75918,-3.6425 -2.73238,8.04695 -13.58464,2.24013 -8.33253,-4.45857 4.87352,-3.79985 -1.81954,-10.47237 -8.71702,-8.69025 -6.20907,5.78776 -13.14158,-4.37898 -5.322889,-7.80617 6.08638,-1.11381 3.2521,-10.129 -3.69136,-11.74133 -8.178995,2.21237 -9.57457,-10.01503 -1.071545,-9.38838 5.85973,1.84273 7.552,-7.45878 2.20401,-12.11425 -8.263233,-1.78226 -3.81772,-13.26467 3.41333,-8.81637 4.34599,4.38999 10.15328,-3.06937 7.56339,-9.71504 -6.46509,-5.41958 2.80776,-13.50947 7.11985,-6.21155 1.81203,5.89942 10.42269,2.00231 11.2145,-5.07558 -3.17343,-7.85864 8.8046,-10.70244 9.19691,-2.1835 -1.20011,6.06065 8.23283,6.62278 12.28543,0.73212 0.82231,-8.41187 12.75701,-5.38936 9.16366,2.32073 -3.76781,4.78466 4.33457,9.645 10.5525,6.33009 4.56252,-7.0636 13.7222,1.16913 7.03294,6.32122 -5.61641,2.56301 -0.69954,10.63859 6.40372,10.51761 7.35617,-4.15164 11.64515,7.38372 3.29315,8.85704 -6.16145,-0.41028 -5.55754,9.0248 0.78652,12.2882 8.52362,-0.20082 6.94512,12.00323 -1.21199,9.37046 -5.35168,-3.17681 -9.19509,5.45373 -5.00565,11.24039 7.59971,3.6851 0.55259,13.77317 z"
       transform="matrix(0.80054851,0,0,0.83062515,275.12098,335.90594)"
       inkscape:export-filename="/home/tom/Desktop/dag/configuration.png"
       inkscape:export-xdpi="90"
       inkscape:export-ydpi="90" />
    <path
       sodipodi:type="arc"
       style="fill:#ffffff;fill-opacity:1;stroke:#afafad;stroke-width:0.02005715;stroke-linecap:square;stroke-linejoin:miter;stroke-miterlimit:4;stroke-opacity:0.67317074;stroke-dasharray:none"
       id="path3596-6"
       sodipodi:cx="71.215752"
       sodipodi:cy="351.06378"
       sodipodi:rx="11.111678"
       sodipodi:ry="10.354064"
       d="m 82.32743,351.06378 c 0,5.71839 -4.974868,10.35407 -11.111678,10.35407 -6.136811,0 -11.111678,-4.63568 -11.111678,-10.35407 0,-5.71839 4.974867,-10.35406 11.111678,-10.35406 6.13681,0 11.111678,4.63567 11.111678,10.35406 z"
       transform="matrix(1.2421507,0,0,1.3071786,299.07916,208.49534)"
       inkscape:export-filename="/home/tom/Desktop/dag/configuration.png"
       inkscape:export-xdpi="90"
       inkscape:export-ydpi="90" />
  </g>
</svg>
